<?xml version="1.0" encoding="utf-8"?>
<!-- Generator: Adobe Illustrator 23.0.3, SVG Export Plug-In . SVG Version: 6.00 Build 0)  -->
<svg version="1.1" id="Layer_1" xmlns="http://www.w3.org/2000/svg" xmlns:xlink="http://www.w3.org/1999/xlink" x="0px" y="0px"
	 viewBox="0 0 60 60" style="enable-background:new 0 0 60 60;" xml:space="preserve">
<style type="text/css">
	.st0{fill:#333333;}
	.st1{clip-path:url(#SVGID_2_);}
	.st2{opacity:0.3;}
	.st3{fill:#676767;}
	.st4{opacity:0.3;clip-path:url(#SVGID_4_);}
	.st5{opacity:0.3;clip-path:url(#SVGID_6_);}
	.st6{fill:#FFFFFF;}
	.st7{fill:none;stroke:#FFFFFF;stroke-width:3;stroke-miterlimit:10;}
	.st8{fill:#FF3366;}
	.st9{fill-rule:evenodd;clip-rule:evenodd;fill:#FF3366;}
	.st10{fill:none;stroke:#FFFFFF;stroke-width:4;stroke-miterlimit:10;}
	.st11{fill-rule:evenodd;clip-rule:evenodd;fill:#666666;}
	.st12{fill-rule:evenodd;clip-rule:evenodd;fill:#FFFFFF;}
	.st13{fill:none;}
	.st14{fill:#666666;}
	.st15{opacity:0.4;fill-rule:evenodd;clip-rule:evenodd;fill:#FFFFFF;}
</style>
<g>
	<g>
		<path d="M54,60H6c-3.3,0-6-2.7-6-6V6c0-3.3,2.7-6,6-6h48c3.3,0,6,2.7,6,6v48C60,57.3,57.3,60,54,60z"/>
	</g>
	<g>
		<g>
			<path class="st6" d="M32,40c0,0,0-0.1,0-0.1c0-0.2,0-0.5,0-0.7c0-0.1,0-0.2,0-0.3C30.8,39,29.4,39,28,39c-7.7,0-14-1.3-14-3
				c0-0.5,0.6-1,1.7-1.4C18.6,35.4,23.1,36,28,36c1.7,0,3.3-0.1,4.8-0.2c0.4-0.9,0.9-1.7,1.4-2.5c0.2-0.3,0.5-0.6,0.8-0.9
				c0.1-0.1,0.3-0.3,0.4-0.4c1.3-1.2,2.9-2.1,4.7-2.6C41,29.1,42,29,43,29c0.3,0,0.7,0,1,0.1V25c0-0.7-0.8-1.4-2.2-2
				c1.4-0.6,2.2-1.3,2.2-2v-7c0-2.2-7.2-4-16-4s-16,1.8-16,4v7c0,0.7,0.8,1.4,2.2,2c-1.4,0.6-2.2,1.3-2.2,2v7c0,0.7,0.8,1.4,2.2,2
				c-1.4,0.6-2.2,1.3-2.2,2v7c0,2.2,7.2,4,16,4c2.2,0,4.3-0.1,6.3-0.3c-0.8-1.1-1.5-2.3-1.9-3.7C32.2,42,32,41,32,40z M28,11
				c7.7,0,14,1.3,14,3s-6.3,3-14,3s-14-1.3-14-3S20.3,11,28,11z M15.7,23.6C18.6,24.4,23.1,25,28,25s9.4-0.6,12.3-1.4
				C41.4,24,42,24.5,42,25c0,1.7-6.3,3-14,3s-14-1.3-14-3C14,24.5,14.6,24,15.7,23.6z"/>
			<g>
				<g>
					<circle class="st6" cx="43" cy="40" r="9"/>
				</g>
				<g>
					<path class="st8" d="M38.8,39.9c0-0.8,0.3-1.6,0.7-2.2l0.9,1.4l1.4-3.8l-4-0.2l1,1.5c-0.7,0.9-1.1,2-1.2,3.2
						c0,2.7,1.9,5,4.5,5.3l0.1-1.1C40.3,43.8,38.8,42,38.8,39.9z"/>
					<path class="st8" d="M48.3,40.1c0-2.7-1.9-5-4.5-5.3l-0.1,1.1c2,0.3,3.6,2.1,3.6,4.2c0,0.8-0.3,1.6-0.7,2.2l-0.9-1.4l-1.4,3.8
						l4,0.2l-1-1.5C47.9,42.4,48.3,41.3,48.3,40.1z"/>
				</g>
			</g>
		</g>
	</g>
</g>
</svg>
