<svg width="48px" height="47px" viewBox="0 0 48 47" version="1.1" xmlns="http://www.w3.org/2000/svg" xmlns:xlink="http://www.w3.org/1999/xlink">
    <!-- Generator: Sketch 54.1 (76490) - https://sketchapp.com -->
    <g id="Page-1" stroke="none" stroke-width="1" fill="none" fill-rule="evenodd">
        <g id="CraftCMS-Plugins_SyncDB-(1)" transform="translate(-6.000000, -7.000000)" fill-rule="nonzero">
            <g id="Group" transform="translate(6.000000, 7.000000)">
                <path d="M24,36 C24,36 24,35.88 24,35.88 C24,35.64 24,35.28 24,35.04 C24,34.92 24,34.8 24,34.68 C22.56,34.8 20.88,34.8 19.2,34.8 C9.96,34.8 2.4,33.24 2.4,31.2 C2.4,30.6 3.12,30 4.44,29.52 C7.92,30.48 13.32,31.2 19.2,31.2 C21.24,31.2 23.16,31.08 24.96,30.96 C25.44,29.88 26.04,28.92 26.64,27.96 C26.88,27.6 27.24,27.24 27.6,26.88 C27.72,26.76 27.96,26.52 28.08,26.4 C29.64,24.96 31.56,23.88 33.72,23.28 C34.8,22.92 36,22.8 37.2,22.8 C37.56,22.8 38.04,22.8 38.4,22.92 L38.4,18 C38.4,17.16 37.44,16.32 35.76,15.6 C37.44,14.88 38.4,14.04 38.4,13.2 L38.4,4.8 C38.4,2.16 29.76,0 19.2,0 C8.64,0 0,2.16 0,4.8 L0,13.2 C0,14.04 0.96,14.88 2.64,15.6 C0.96,16.32 0,17.16 0,18 L0,26.4 C0,27.24 0.96,28.08 2.64,28.8 C0.96,29.52 0,30.36 0,31.2 L0,39.6 C0,42.24 8.64,44.4 19.2,44.4 C21.84,44.4 24.36,44.28 26.76,44.04 C25.8,42.72 24.96,41.28 24.48,39.6 C24.24,38.4 24,37.2 24,36 Z M19.2,1.2 C28.44,1.2 36,2.76 36,4.8 C36,6.84 28.44,8.4 19.2,8.4 C9.96,8.4 2.4,6.84 2.4,4.8 C2.4,2.76 9.96,1.2 19.2,1.2 Z M4.44,16.32 C7.92,17.28 13.32,18 19.2,18 C25.08,18 30.48,17.28 33.96,16.32 C35.28,16.8 36,17.4 36,18 C36,20.04 28.44,21.6 19.2,21.6 C9.96,21.6 2.4,20.04 2.4,18 C2.4,17.4 3.12,16.8 4.44,16.32 Z" id="Shape" fill="#FFFFFF"></path>
                <g transform="translate(26.400000, 25.200000)">
                    <circle id="Oval" fill="#FFFFFF" cx="10.8" cy="10.8" r="10.8"></circle>
                    <g transform="translate(3.600000, 3.600000)" fill="#FF3366" id="Path">
                        <path d="M2.16,7.08 C2.16,6.12 2.52,5.16 3,4.44 L4.08,6.12 L5.76,1.56 L0.96,1.32 L2.16,3.12 C1.32,4.2 0.84,5.52 0.72,6.96 C0.72,10.2 3,12.96 6.12,13.32 L6.24,12 C3.96,11.76 2.16,9.6 2.16,7.08 Z"></path>
                        <path d="M13.56,7.32 C13.56,4.08 11.28,1.32 8.16,0.96 L8.04,2.28 C10.44,2.64 12.36,4.8 12.36,7.32 C12.36,8.28 12,9.24 11.52,9.96 L10.44,8.28 L8.76,12.84 L13.56,13.08 L12.36,11.28 C13.08,10.08 13.56,8.76 13.56,7.32 Z"></path>
                    </g>
                </g>
            </g>
        </g>
    </g>
</svg>